<?xml version="1.0" encoding="UTF-8"?>
<!DOCTYPE svg PUBLIC "-//W3C//DTD SVG 1.1//EN" "http://www.w3.org/Graphics/SVG/1.1/DTD/svg11.dtd">
<svg xmlns="http://www.w3.org/2000/svg" version="1.1" width="513px" height="163px" style="shape-rendering:geometricPrecision; text-rendering:geometricPrecision; image-rendering:optimizeQuality; fill-rule:evenodd; clip-rule:evenodd" xmlns:xlink="http://www.w3.org/1999/xlink">
<g><path style="opacity:1" fill="#818181" d="M 78.5,30.5 C 80.5273,30.3379 82.5273,30.5045 84.5,31C 83.062,31.2189 81.7287,31.7189 80.5,32.5C 80.7093,33.086 81.0426,33.586 81.5,34C 79.5,34.6667 77.5,34.6667 75.5,34C 76.1667,33.6667 76.8333,33.3333 77.5,33C 76.2625,32.7679 75.2625,32.2679 74.5,31.5C 75.5676,30.5655 76.901,30.2322 78.5,30.5 Z"/></g>
<g><path style="opacity:0.992" fill="#c8c8c8" d="M 96.5,29.5 C 95.234,30.0899 93.9007,30.5899 92.5,31C 94.6982,31.3729 96.8649,31.8729 99,32.5C 102.037,31.6802 102.204,30.6802 99.5,29.5C 101.415,29.2155 103.081,29.5489 104.5,30.5C 103.711,30.7828 103.044,31.2828 102.5,32C 106.298,32.9284 109.798,34.4284 113,36.5C 112.513,38.0438 112.013,39.7105 111.5,41.5C 110.833,41.5 110.5,41.1667 110.5,40.5C 108.975,36.1237 105.975,33.957 101.5,34C 104.326,35.483 106.659,37.483 108.5,40C 107.377,41.0437 106.044,41.7104 104.5,42C 105.167,42.3333 105.833,42.6667 106.5,43C 106.272,43.3988 105.938,43.5654 105.5,43.5C 98.7104,40.2618 91.7104,39.7618 84.5,42C 83.4019,42.7697 83.4019,43.603 84.5,44.5C 85.0955,47.1125 85.9288,47.1125 87,44.5C 87.8518,45.5707 88.6851,46.5707 89.5,47.5C 91.1978,50.1239 93.0312,50.1239 95,47.5C 96.0386,48.2438 96.5386,49.2438 96.5,50.5C 96.9372,51.3719 96.9372,52.5386 96.5,54C 98.0441,54.2896 99.3774,54.9563 100.5,56C 97.0244,57.2542 93.3577,57.9209 89.5,58C 92.324,58.3302 94.9906,59.1635 97.5,60.5C 101.367,59.9178 104.034,58.5845 105.5,56.5C 106.097,56.7352 106.43,57.2352 106.5,58C 105.944,59.0111 105.278,59.8444 104.5,60.5C 101.193,61.0508 97.8599,61.3841 94.5,61.5C 93.0697,60.4625 91.403,59.7959 89.5,59.5C 88.2568,61.1639 86.5902,62.3305 84.5,63C 85.9023,64.3425 85.5689,65.1758 83.5,65.5C 81.0017,64.3697 78.6684,64.3697 76.5,65.5C 73.2807,66.6382 69.9474,67.4715 66.5,68C 64.9297,69.3968 63.5964,70.8968 62.5,72.5C 62.5,71.8333 62.1667,71.5 61.5,71.5C 62.1247,69.4729 62.1247,67.6395 61.5,66C 58.8424,65.9271 56.1757,66.2604 53.5,67C 55.3817,67.1981 57.0484,67.6981 58.5,68.5C 57.391,68.5569 56.391,68.8902 55.5,69.5C 53.8333,68.8333 52.1667,68.1667 50.5,67.5C 50.5299,66.5028 50.0299,65.8361 49,65.5C 47.6362,66.3707 46.4695,67.3707 45.5,68.5C 44.1667,69.1667 42.8333,69.8333 41.5,70.5C 37.3758,71.8646 33.3758,73.5313 29.5,75.5C 27.6212,77.0697 27.2878,78.7363 28.5,80.5C 28.5,81.8333 29.1667,82.5 30.5,82.5C 31.609,82.4431 32.609,82.1098 33.5,81.5C 33.5,82.5 33.5,83.5 33.5,84.5C 32.1579,87.1658 30.3245,89.4992 28,91.5C 27.6012,91.2716 27.4346,90.9382 27.5,90.5C 27.631,89.7611 27.4643,89.0944 27,88.5C 25.6152,89.5505 24.6152,90.8839 24,92.5C 21.0154,87.5152 20.8487,82.3485 23.5,77C 23.3333,76.5 23.1667,76 23,75.5C 22.3292,76.2524 21.4959,76.5858 20.5,76.5C 20.631,75.7611 20.4643,75.0944 20,74.5C 19.1072,75.7112 18.2739,75.7112 17.5,74.5C 17.9857,72.6961 18.319,71.0294 18.5,69.5C 19.4032,72.9251 20.9032,73.2584 23,70.5C 25.2303,71.4885 27.0636,70.8218 28.5,68.5C 29.3857,67.675 29.719,66.675 29.5,65.5C 26.7147,65.933 24.3813,67.2663 22.5,69.5C 22.1667,68.8333 21.8333,68.1667 21.5,67.5C 20.8165,67.8627 20.1499,68.1961 19.5,68.5C 21.3268,66.0273 22.6602,63.3607 23.5,60.5C 23.56,61.0431 23.8933,61.3764 24.5,61.5C 25.5,60.8333 26.5,60.1667 27.5,59.5C 28.6956,59.8457 28.6956,60.3457 27.5,61C 30.2652,60.2797 32.5985,58.6131 34.5,56C 29.2173,57.3917 28.5506,56.3917 32.5,53C 34.9803,52.04 37.4803,51.2066 40,50.5C 40.6667,49.8333 40.6667,49.1667 40,48.5C 38.9505,49.5171 37.7839,49.6838 36.5,49C 37.8333,48.3333 37.8333,47.6667 36.5,47C 37.9663,46.3645 39.2997,45.5312 40.5,44.5C 41.5178,47.2461 43.1845,47.0795 45.5,44C 44.8333,43.6667 44.1667,43.3333 43.5,43C 47.0477,41.0593 50.7143,39.3926 54.5,38C 53.9056,37.5357 53.2389,37.369 52.5,37.5C 53.209,36.596 54.209,36.2627 55.5,36.5C 58.5707,40.2308 61.904,40.3975 65.5,37C 63.4817,36.4954 61.4817,35.9954 59.5,35.5C 64.2715,33.722 69.2715,32.3887 74.5,31.5C 75.2625,32.2679 76.2625,32.7679 77.5,33C 76.8333,33.3333 76.1667,33.6667 75.5,34C 77.5,34.6667 79.5,34.6667 81.5,34C 81.0426,33.586 80.7093,33.086 80.5,32.5C 81.7287,31.7189 83.062,31.2189 84.5,31C 82.5273,30.5045 80.5273,30.3379 78.5,30.5C 83.679,29.7416 89.0123,29.0749 94.5,28.5C 95.4164,28.5427 96.0831,28.8761 96.5,29.5 Z"/></g>
<g><path style="opacity:1" fill="#6b6b6b" d="M 96.5,29.5 C 97.5,29.5 98.5,29.5 99.5,29.5C 102.204,30.6802 102.037,31.6802 99,32.5C 96.8649,31.8729 94.6982,31.3729 92.5,31C 93.9007,30.5899 95.234,30.0899 96.5,29.5 Z"/></g>
<g><path style="opacity:1" fill="#606161" d="M 96.5,33.5 C 99.462,33.1167 100.462,34.1167 99.5,36.5C 98.2054,35.9017 96.8721,35.4017 95.5,35C 96.056,34.6174 96.3893,34.1174 96.5,33.5 Z"/></g>
<g><path style="opacity:1" fill="#808080" d="M 59.5,35.5 C 61.4817,35.9954 63.4817,36.4954 65.5,37C 61.904,40.3975 58.5707,40.2308 55.5,36.5C 56.5676,35.5655 57.901,35.2322 59.5,35.5 Z"/></g>
<g><path style="opacity:1" fill="#595959" d="M 87.5,37.5 C 91.9955,35.8838 96.3288,36.3838 100.5,39C 96.1744,38.8357 91.8411,38.3357 87.5,37.5 Z"/></g>
<g><path style="opacity:1" fill="#737373" d="M 104.5,30.5 C 110.226,31.9 114.893,34.9 118.5,39.5C 118.631,40.2389 118.464,40.9056 118,41.5C 117,40.5 116,39.5 115,38.5C 114.833,38.8333 114.667,39.1667 114.5,39.5C 115.986,41.3016 116.986,43.3016 117.5,45.5C 116.883,45.6107 116.383,45.944 116,46.5C 115,44.1667 114,41.8333 113,39.5C 112.722,40.4158 112.222,41.0825 111.5,41.5C 112.013,39.7105 112.513,38.0438 113,36.5C 109.798,34.4284 106.298,32.9284 102.5,32C 103.044,31.2828 103.711,30.7828 104.5,30.5 Z"/></g>
<g><path style="opacity:0.984" fill="#919191" d="M 52.5,37.5 C 53.2389,37.369 53.9056,37.5357 54.5,38C 50.7143,39.3926 47.0477,41.0593 43.5,43C 44.1667,43.3333 44.8333,43.6667 45.5,44C 43.1845,47.0795 41.5178,47.2461 40.5,44.5C 39.2997,45.5312 37.9663,46.3645 36.5,47C 37.8333,47.6667 37.8333,48.3333 36.5,49C 37.7839,49.6838 38.9505,49.5171 40,48.5C 40.6667,49.1667 40.6667,49.8333 40,50.5C 37.4803,51.2066 34.9803,52.04 32.5,53C 28.5506,56.3917 29.2173,57.3917 34.5,56C 32.5985,58.6131 30.2652,60.2797 27.5,61C 28.6956,60.3457 28.6956,59.8457 27.5,59.5C 26.5,60.1667 25.5,60.8333 24.5,61.5C 23.8933,61.3764 23.56,61.0431 23.5,60.5C 29.9421,48.7776 39.6087,41.111 52.5,37.5 Z"/></g>
<g><path style="opacity:1" fill="#323130" d="M 117.5,45.5 C 118.167,45.5 118.5,45.8333 118.5,46.5C 118.489,48.0174 117.823,49.1841 116.5,50C 112.148,51.6851 109.148,54.6851 107.5,59C 107.833,59.3333 108.167,59.6667 108.5,60C 107.207,60.49 105.873,60.6567 104.5,60.5C 105.278,59.8444 105.944,59.0111 106.5,58C 106.43,57.2352 106.097,56.7352 105.5,56.5C 104.282,55.8386 102.949,55.1719 101.5,54.5C 101.709,53.914 102.043,53.414 102.5,53C 101.049,53.2626 99.7161,53.0959 98.5,52.5C 98.9767,51.5224 99.6433,50.6891 100.5,50C 97.2774,42.2543 91.944,40.4209 84.5,44.5C 83.4019,43.603 83.4019,42.7697 84.5,42C 91.7104,39.7618 98.7104,40.2618 105.5,43.5C 106.601,44.5983 107.934,44.765 109.5,44C 108.2,42.4212 108.534,41.2545 110.5,40.5C 110.5,41.1667 110.833,41.5 111.5,41.5C 112.222,41.0825 112.722,40.4158 113,39.5C 114,41.8333 115,44.1667 116,46.5C 116.383,45.944 116.883,45.6107 117.5,45.5 Z"/></g>
<g><path style="opacity:1" fill="#6d6d6d" d="M 110.5,40.5 C 108.534,41.2545 108.2,42.4212 109.5,44C 107.934,44.765 106.601,44.5983 105.5,43.5C 105.938,43.5654 106.272,43.3988 106.5,43C 105.833,42.6667 105.167,42.3333 104.5,42C 106.044,41.7104 107.377,41.0437 108.5,40C 106.659,37.483 104.326,35.483 101.5,34C 105.975,33.957 108.975,36.1237 110.5,40.5 Z"/></g>
<g><path style="opacity:1" fill="#575757" d="M 58.5,43.5 C 60.6282,42.3709 62.9615,42.2042 65.5,43C 63.2144,44.6636 60.8811,44.8303 58.5,43.5 Z"/></g>
<g><path style="opacity:1" fill="#595959" d="M 78.5,41.5 C 83.1831,41.653 83.1831,42.9863 78.5,45.5C 77.8333,45.3333 77.1667,45.1667 76.5,45C 77.305,43.8873 77.9717,42.7206 78.5,41.5 Z"/></g>
<g><path style="opacity:1" fill="#2d2d2d" d="M 96.5,50.5 C 96.5386,49.2438 96.0386,48.2438 95,47.5C 93.0312,50.1239 91.1978,50.1239 89.5,47.5C 89.67,46.1779 89.3366,45.0113 88.5,44C 93.7843,42.6 97.1176,44.6 98.5,50C 97.9056,50.4643 97.2389,50.631 96.5,50.5 Z"/></g>
<g><path style="opacity:0.859" fill="#a39c95" d="M 118.5,39.5 C 119.601,40.8484 120.601,42.3484 121.5,44C 127.782,44.9213 133.448,47.088 138.5,50.5C 137.833,50.5 137.167,50.5 136.5,50.5C 134.95,49.5592 133.284,48.8925 131.5,48.5C 131.158,47.6618 130.492,47.3284 129.5,47.5C 125.946,45.5163 122.28,45.1829 118.5,46.5C 118.5,45.8333 118.167,45.5 117.5,45.5C 116.986,43.3016 115.986,41.3016 114.5,39.5C 114.667,39.1667 114.833,38.8333 115,38.5C 116,39.5 117,40.5 118,41.5C 118.464,40.9056 118.631,40.2389 118.5,39.5 Z"/></g>
<g><path style="opacity:1" fill="#f0a54a" d="M 129.5,47.5 C 129.784,49.4147 129.451,51.0813 128.5,52.5C 127.749,51.4265 126.749,51.2599 125.5,52C 124.5,53 123.5,54 122.5,55C 123.749,55.7401 124.749,55.5735 125.5,54.5C 127.124,54.3601 128.29,55.0267 129,56.5C 129.667,55.8333 130.333,55.1667 131,54.5C 131.04,52.2755 131.206,50.2755 131.5,48.5C 133.284,48.8925 134.95,49.5592 136.5,50.5C 140.046,52.7568 141.713,56.0901 141.5,60.5C 141.586,61.4959 141.252,62.3292 140.5,63C 138.314,63.0613 136.314,63.2279 134.5,63.5C 123.266,63.4849 111.933,63.6515 100.5,64C 106.833,64.3333 113.167,64.6667 119.5,65C 118.167,65.3333 116.833,65.6667 115.5,66C 116.333,66.1667 117.167,66.3333 118,66.5C 124.818,65.5303 131.651,65.5303 138.5,66.5C 138.209,67.6491 137.376,68.3158 136,68.5C 128.867,70.7003 121.867,71.0336 115,69.5C 113.527,69.9031 112.194,70.5697 111,71.5C 109.284,68.9222 106.784,67.5889 103.5,67.5C 106.641,66.6787 109.975,66.1787 113.5,66C 106.987,65.8279 100.653,65.3279 94.5,64.5C 97.5983,64.5875 97.9316,64.0875 95.5,63C 98.1667,62.6667 100.833,62.3333 103.5,62C 104.056,61.6174 104.389,61.1174 104.5,60.5C 105.873,60.6567 107.207,60.49 108.5,60C 108.167,59.6667 107.833,59.3333 107.5,59C 109.148,54.6851 112.148,51.6851 116.5,50C 117.823,49.1841 118.489,48.0174 118.5,46.5C 122.28,45.1829 125.946,45.5163 129.5,47.5 Z"/></g>
<g><path style="opacity:1" fill="#6f7070" d="M 69.5,47.5 C 69.7352,46.9033 70.2352,46.5699 71,46.5C 73.678,47.8362 76.5113,48.6696 79.5,49C 75.9735,49.6898 72.6402,49.1898 69.5,47.5 Z"/></g>
<g><path style="opacity:1" fill="#797979" d="M 58.5,45.5 C 64.7933,46.1108 64.4599,46.9441 57.5,48C 58.6956,48.6543 58.6956,49.1543 57.5,49.5C 54.2947,48.5947 51.2947,48.2613 48.5,48.5C 50.5832,46.3956 52.9165,46.0623 55.5,47.5C 56.7387,47.0576 57.7387,46.3909 58.5,45.5 Z"/></g>
<g><path style="opacity:1" fill="#969696" d="M 105.5,56.5 C 104.034,58.5845 101.367,59.9178 97.5,60.5C 94.9906,59.1635 92.324,58.3302 89.5,58C 93.3577,57.9209 97.0244,57.2542 100.5,56C 99.3774,54.9563 98.0441,54.2896 96.5,54C 96.9372,52.5386 96.9372,51.3719 96.5,50.5C 97.2389,50.631 97.9056,50.4643 98.5,50C 97.1176,44.6 93.7843,42.6 88.5,44C 89.3366,45.0113 89.67,46.1779 89.5,47.5C 88.6851,46.5707 87.8518,45.5707 87,44.5C 85.9288,47.1125 85.0955,47.1125 84.5,44.5C 91.944,40.4209 97.2774,42.2543 100.5,50C 99.6433,50.6891 98.9767,51.5224 98.5,52.5C 99.7161,53.0959 101.049,53.2626 102.5,53C 102.043,53.414 101.709,53.914 101.5,54.5C 102.949,55.1719 104.282,55.8386 105.5,56.5 Z"/></g>
<g><path style="opacity:1" fill="#4f4130" d="M 128.5,52.5 C 127.5,53.1667 126.5,53.8333 125.5,54.5C 124.749,55.5735 123.749,55.7401 122.5,55C 123.5,54 124.5,53 125.5,52C 126.749,51.2599 127.749,51.4265 128.5,52.5 Z"/></g>
<g><path style="opacity:1" fill="#8e8e8e" d="M 78.5,56.5 C 76.901,56.7678 75.5676,56.4345 74.5,55.5C 75.552,55.6495 76.552,55.4828 77.5,55C 75.9411,54.0201 74.2744,53.1867 72.5,52.5C 78.053,52.5244 83.3863,54.0244 88.5,57C 85.7813,57.5281 83.2813,57.0281 81,55.5C 79.9302,55.528 79.0968,55.8614 78.5,56.5 Z"/></g>
<g><path style="opacity:1" fill="#727272" d="M 40.5,52.5 C 41.675,52.281 42.675,52.6143 43.5,53.5C 39.1396,57.8195 38.1396,57.4862 40.5,52.5 Z"/></g>
<g><path style="opacity:1" fill="#a4763e" d="M 129.5,47.5 C 130.492,47.3284 131.158,47.6618 131.5,48.5C 131.206,50.2755 131.04,52.2755 131,54.5C 130.333,55.1667 129.667,55.8333 129,56.5C 128.29,55.0267 127.124,54.3601 125.5,54.5C 126.5,53.8333 127.5,53.1667 128.5,52.5C 129.451,51.0813 129.784,49.4147 129.5,47.5 Z"/></g>
<g><path style="opacity:1" fill="#888888" d="M 63.5,55.5 C 65.8333,56.1667 68.1667,56.8333 70.5,57.5C 66.6166,57.1091 62.95,57.7758 59.5,59.5C 59.1667,59.3333 58.8333,59.1667 58.5,59C 59.7893,57.1978 61.4559,56.0312 63.5,55.5 Z"/></g>
<g><path style="opacity:1" fill="#3b3b3b" d="M 74.5,55.5 C 75.5676,56.4345 76.901,56.7678 78.5,56.5C 79.1859,57.8484 80.1859,59.015 81.5,60C 77.8486,59.3681 74.1819,58.5348 70.5,57.5C 68.1667,56.8333 65.8333,56.1667 63.5,55.5C 67.0665,54.9112 70.7332,54.9112 74.5,55.5 Z"/></g>
<g><path style="opacity:1" fill="#2f2d2b" d="M 139.5,66.5 C 137.928,65.3127 136.261,64.3127 134.5,63.5C 136.314,63.2279 138.314,63.0613 140.5,63C 141.252,62.3292 141.586,61.4959 141.5,60.5C 142.29,59.3915 142.79,58.0581 143,56.5C 146.878,62.0655 147.544,68.0655 145,74.5C 143.837,72.7148 143.17,70.7148 143,68.5C 142.184,67.1772 141.017,66.5106 139.5,66.5 Z"/></g>
<g><path style="opacity:0.998" fill="#333e5f" d="M 469.5,58.5 C 475.023,58.5619 476.856,61.2286 475,66.5C 470.626,69.5433 467.793,68.5433 466.5,63.5C 466.323,61.0321 467.323,59.3654 469.5,58.5 Z"/></g>
<g><path style="opacity:1" fill="#858585" d="M 65.5,62.5 C 68.6399,61.3592 71.9733,61.1925 75.5,62C 72.2781,63.8175 68.9447,63.9842 65.5,62.5 Z"/></g>
<g><path style="opacity:1" fill="#826f58" d="M 104.5,60.5 C 104.389,61.1174 104.056,61.6174 103.5,62C 100.833,62.3333 98.1667,62.6667 95.5,63C 97.9316,64.0875 97.5983,64.5875 94.5,64.5C 94.1667,64.5 93.8333,64.5 93.5,64.5C 93.2627,63.209 93.596,62.209 94.5,61.5C 97.8599,61.3841 101.193,61.0508 104.5,60.5 Z"/></g>
<g><path style="opacity:0.999" fill="#1a294c" d="M 202.5,61.5 C 211.833,61.5 221.167,61.5 230.5,61.5C 230.5,63.8333 230.5,66.1667 230.5,68.5C 224.167,68.5 217.833,68.5 211.5,68.5C 211.5,71.5 211.5,74.5 211.5,77.5C 217.167,77.5 222.833,77.5 228.5,77.5C 228.5,80.1667 228.5,82.8333 228.5,85.5C 222.833,85.5 217.167,85.5 211.5,85.5C 211.5,88.5 211.5,91.5 211.5,94.5C 217.833,94.5 224.167,94.5 230.5,94.5C 230.5,96.8333 230.5,99.1667 230.5,101.5C 221.167,101.5 211.833,101.5 202.5,101.5C 202.5,88.1667 202.5,74.8333 202.5,61.5 Z"/></g>
<g><path style="opacity:0.994" fill="#1e2c4e" d="M 302.5,61.5 C 305.5,61.5 308.5,61.5 311.5,61.5C 311.5,74.8333 311.5,88.1667 311.5,101.5C 308.5,101.5 305.5,101.5 302.5,101.5C 302.5,88.1667 302.5,74.8333 302.5,61.5 Z"/></g>
<g><path style="opacity:0.997" fill="#1d2b4e" d="M 363.5,61.5 C 371.174,61.3336 378.841,61.5003 386.5,62C 393.224,65.4826 395.724,70.9826 394,78.5C 392.576,81.5922 390.743,84.4255 388.5,87C 390.953,91.4058 393.287,95.9058 395.5,100.5C 392.216,101.657 388.882,101.824 385.5,101C 383.293,96.7525 380.96,92.5859 378.5,88.5C 376.604,87.5344 374.604,87.2011 372.5,87.5C 372.5,92.1667 372.5,96.8333 372.5,101.5C 369.5,101.5 366.5,101.5 363.5,101.5C 363.5,88.1667 363.5,74.8333 363.5,61.5 Z M 384.5,71.5 C 384.893,74.5133 384.226,77.1799 382.5,79.5C 379.214,80.2071 375.881,80.5405 372.5,80.5C 372.5,76.5 372.5,72.5 372.5,68.5C 376.942,68.0321 380.942,69.0321 384.5,71.5 Z"/></g>
<g><path style="opacity:0.997" fill="#243153" d="M 451.5,61.5 C 454.5,61.5 457.5,61.5 460.5,61.5C 460.5,74.8333 460.5,88.1667 460.5,101.5C 457.5,101.5 454.5,101.5 451.5,101.5C 451.557,97.8669 450.557,97.7002 448.5,101C 436.755,103.935 430.755,99.2688 430.5,87C 430.267,74.2192 436.267,69.2192 448.5,72C 449.333,72.8333 450.167,73.6667 451,74.5C 451.499,70.1794 451.666,65.8461 451.5,61.5 Z M 442.5,78.5 C 448.6,77.5976 451.6,80.2643 451.5,86.5C 451.133,94.4004 447.633,96.4004 441,92.5C 438.782,87.4883 439.282,82.8217 442.5,78.5 Z"/></g>
<g><path style="opacity:1" fill="#ac9f92" d="M 93.5,64.5 C 93.8333,64.5 94.1667,64.5 94.5,64.5C 100.653,65.3279 106.987,65.8279 113.5,66C 109.975,66.1787 106.641,66.6787 103.5,67.5C 99.6347,68.2243 95.6347,68.8909 91.5,69.5C 90.2319,67.6957 89.5652,65.6957 89.5,63.5C 90.9587,63.4326 92.2921,63.7659 93.5,64.5 Z"/></g>
<g><path style="opacity:1" fill="#a6773e" d="M 134.5,63.5 C 136.261,64.3127 137.928,65.3127 139.5,66.5C 139.167,66.5 138.833,66.5 138.5,66.5C 131.651,65.5303 124.818,65.5303 118,66.5C 117.167,66.3333 116.333,66.1667 115.5,66C 116.833,65.6667 118.167,65.3333 119.5,65C 113.167,64.6667 106.833,64.3333 100.5,64C 111.933,63.6515 123.266,63.4849 134.5,63.5 Z"/></g>
<g><path style="opacity:1" fill="#3c3c3c" d="M 76.5,65.5 C 77.675,65.281 78.675,65.6143 79.5,66.5C 75.9796,68.9948 72.3129,70.3282 68.5,70.5C 66.2843,71.2026 64.451,72.5359 63,74.5C 62.5357,73.9056 62.369,73.2389 62.5,72.5C 63.5964,70.8968 64.9297,69.3968 66.5,68C 69.9474,67.4715 73.2807,66.6382 76.5,65.5 Z"/></g>
<g><path style="opacity:1" fill="#626262" d="M 18.5,69.5 C 18.5,68.8333 18.8333,68.5 19.5,68.5C 20.1499,68.1961 20.8165,67.8627 21.5,67.5C 21.8333,68.1667 22.1667,68.8333 22.5,69.5C 24.3813,67.2663 26.7147,65.933 29.5,65.5C 29.719,66.675 29.3857,67.675 28.5,68.5C 27.0636,70.8218 25.2303,71.4885 23,70.5C 20.9032,73.2584 19.4032,72.9251 18.5,69.5 Z"/></g>
<g><path style="opacity:1" fill="#7b7b7b" d="M 50.5,67.5 C 48.8828,68.038 47.2161,68.3713 45.5,68.5C 46.4695,67.3707 47.6362,66.3707 49,65.5C 50.0299,65.8361 50.5299,66.5028 50.5,67.5 Z"/></g>
<g><path style="opacity:1" fill="#484848" d="M 36.5,67.5 C 37.552,67.3505 38.552,67.5172 39.5,68C 36.6714,69.2467 34.0048,70.7467 31.5,72.5C 31.1667,72.1667 30.8333,71.8333 30.5,71.5C 32.2903,69.6843 34.2903,68.3509 36.5,67.5 Z"/></g>
<g><path style="opacity:1" fill="#868686" d="M 61.5,71.5 C 60.8333,71.5 60.1667,71.5 59.5,71.5C 59.7373,70.209 59.404,69.209 58.5,68.5C 57.0484,67.6981 55.3817,67.1981 53.5,67C 56.1757,66.2604 58.8424,65.9271 61.5,66C 62.1247,67.6395 62.1247,69.4729 61.5,71.5 Z"/></g>
<g><path style="opacity:1" fill="#343231" d="M 89.5,59.5 C 91.403,59.7959 93.0697,60.4625 94.5,61.5C 93.596,62.209 93.2627,63.209 93.5,64.5C 92.2921,63.7659 90.9587,63.4326 89.5,63.5C 89.5652,65.6957 90.2319,67.6957 91.5,69.5C 95.6347,68.8909 99.6347,68.2243 103.5,67.5C 106.784,67.5889 109.284,68.9222 111,71.5C 112.194,70.5697 113.527,69.9031 115,69.5C 121.867,71.0336 128.867,70.7003 136,68.5C 137.376,68.3158 138.209,67.6491 138.5,66.5C 138.833,66.5 139.167,66.5 139.5,66.5C 140.29,67.7942 141.29,68.9609 142.5,70C 141.584,70.2784 140.918,70.7784 140.5,71.5C 139.292,72.2341 137.959,72.5674 136.5,72.5C 132.563,72.7935 128.73,72.4601 125,71.5C 122.072,72.6074 119.572,74.2741 117.5,76.5C 114.616,79.0958 111.449,81.4291 108,83.5C 107.667,83.1667 107.333,82.8333 107,82.5C 106.219,83.9437 106.386,85.277 107.5,86.5C 109.128,86.5786 110.795,86.9119 112.5,87.5C 111.874,88.5289 111.041,89.5289 110,90.5C 108.324,89.9389 106.991,88.9389 106,87.5C 104.701,87.9662 103.201,87.9662 101.5,87.5C 100.321,84.6291 100.321,81.7957 101.5,79C 99.8645,77.566 98.8645,75.7326 98.5,73.5C 94.8084,72.4362 91.1417,71.2696 87.5,70C 88.767,68.2041 88.767,66.3707 87.5,64.5C 88.4565,62.9246 89.1231,61.258 89.5,59.5 Z"/></g>
<g><path style="opacity:1" fill="#3c3c3c" d="M 58.5,68.5 C 59.404,69.209 59.7373,70.209 59.5,71.5C 56.8045,71.933 54.6379,73.2663 53,75.5C 52.0276,72.7058 52.8609,70.7058 55.5,69.5C 56.391,68.8902 57.391,68.5569 58.5,68.5 Z"/></g>
<g><path style="opacity:0.987" fill="#cecece" d="M 50.5,67.5 C 52.1667,68.1667 53.8333,68.8333 55.5,69.5C 52.8609,70.7058 52.0276,72.7058 53,75.5C 54.6379,73.2663 56.8045,71.933 59.5,71.5C 60.1667,71.5 60.8333,71.5 61.5,71.5C 62.1667,71.5 62.5,71.8333 62.5,72.5C 62.369,73.2389 62.5357,73.9056 63,74.5C 64.451,72.5359 66.2843,71.2026 68.5,70.5C 69.791,70.2627 70.791,70.596 71.5,71.5C 70.1667,72.5 68.8333,73.5 67.5,74.5C 66.0384,75.4577 64.7051,76.6244 63.5,78C 64.5358,79.6169 65.7025,79.7836 67,78.5C 67.49,79.7932 67.6567,81.1266 67.5,82.5C 66.209,82.2627 65.209,82.596 64.5,83.5C 61.3828,86.8617 60.8828,90.5284 63,94.5C 63.003,91.251 64.1697,88.5844 66.5,86.5C 67.1408,84.9577 68.1408,83.6243 69.5,82.5C 70.5751,84.8111 70.5751,87.1445 69.5,89.5C 69.1667,90.1667 68.8333,90.8333 68.5,91.5C 68.0618,91.4346 67.7284,91.6012 67.5,92C 68.646,92.6449 69.646,93.4783 70.5,94.5C 71.086,94.2907 71.586,93.9574 72,93.5C 72.6397,95.265 72.4731,96.9317 71.5,98.5C 69.9818,98.2043 67.9818,98.2043 65.5,98.5C 65.1205,97.8669 64.7871,97.2003 64.5,96.5C 63.8333,96.8333 63.1667,97.1667 62.5,97.5C 61.4793,96.0986 60.4793,94.7653 59.5,93.5C 59.1788,91.9519 58.1788,91.2852 56.5,91.5C 56.5,92.8333 56.5,94.1667 56.5,95.5C 55.5416,95.9528 54.7083,96.6195 54,97.5C 53.5357,96.9056 53.369,96.2389 53.5,95.5C 54.1188,91.4649 55.7854,87.9649 58.5,85C 54.7103,85.0707 52.0437,86.904 50.5,90.5C 47.7594,90.0234 45.4261,91.0234 43.5,93.5C 42.6043,92.4937 41.9377,92.4937 41.5,93.5C 38.7332,94.0507 36.3999,95.3841 34.5,97.5C 33.914,97.2907 33.414,96.9574 33,96.5C 30.6077,101.014 28.6077,105.681 27,110.5C 26.433,107.832 25.933,105.166 25.5,102.5C 28.9887,98.1899 31.4887,93.1899 33,87.5C 33.414,87.0426 33.914,86.7093 34.5,86.5C 35.1667,88.1667 35.8333,89.8333 36.5,91.5C 37.3857,90.675 37.719,89.675 37.5,88.5C 37.8333,87.8333 38.1667,87.1667 38.5,86.5C 43.0106,85.8161 46.6772,83.8161 49.5,80.5C 49.8333,81.1667 50.1667,81.8333 50.5,82.5C 51.7362,81.7542 53.0695,81.4208 54.5,81.5C 54.33,80.1779 54.6634,79.0113 55.5,78C 53.8925,78.0187 52.2259,78.1854 50.5,78.5C 50.8146,76.7741 50.9813,75.1075 51,73.5C 48.1492,75.4104 46.6492,77.7437 46.5,80.5C 45.1255,81.7113 43.6255,82.7113 42,83.5C 40.3164,83.3166 40.1498,82.6499 41.5,81.5C 42.5624,80.4246 42.5624,79.4246 41.5,78.5C 38.5326,79.8037 36.1992,81.8037 34.5,84.5C 34.1667,84.5 33.8333,84.5 33.5,84.5C 33.5,83.5 33.5,82.5 33.5,81.5C 33.631,80.7611 33.4643,80.0944 33,79.5C 31.583,80.0779 30.7496,81.0779 30.5,82.5C 29.1667,82.5 28.5,81.8333 28.5,80.5C 29.7158,78.5491 31.3825,77.0491 33.5,76C 37.6767,75.4206 41.6767,74.4206 45.5,73C 44.2644,71.9152 42.9311,71.0819 41.5,70.5C 42.8333,69.8333 44.1667,69.1667 45.5,68.5C 47.2161,68.3713 48.8828,68.038 50.5,67.5 Z M 33.5,81.5 C 32.609,82.1098 31.609,82.4431 30.5,82.5C 30.7496,81.0779 31.583,80.0779 33,79.5C 33.4643,80.0944 33.631,80.7611 33.5,81.5 Z"/></g>
<g><path style="opacity:0.999" fill="#273455" d="M 254.5,101.5 C 254.657,100.127 254.49,98.7932 254,97.5C 253.283,98.0442 252.783,98.7109 252.5,99.5C 251.942,100.79 250.942,101.623 249.5,102C 239.479,104.291 234.646,100.458 235,90.5C 235.273,88.6711 236.107,87.1711 237.5,86C 241.253,84.0111 245.253,83.1778 249.5,83.5C 251.483,83.8432 252.817,83.1765 253.5,81.5C 250.493,76.3783 247.16,76.3783 243.5,81.5C 241.929,80.6906 240.262,80.3573 238.5,80.5C 237.833,79.8333 237.167,79.1667 236.5,78.5C 237.831,74.1472 240.831,71.6472 245.5,71C 252.561,69.4603 258.061,71.627 262,77.5C 262.5,85.4931 262.666,93.4931 262.5,101.5C 259.833,101.5 257.167,101.5 254.5,101.5 Z M 250.5,88.5 C 251.5,88.5 252.5,88.5 253.5,88.5C 253.046,94.7872 249.879,96.7872 244,94.5C 243.333,93.5 243.333,92.5 244,91.5C 246.045,90.0735 248.212,89.0735 250.5,88.5 Z"/></g>
<g><path style="opacity:0.999" fill="#283456" d="M 285.5,72.5 C 287.878,78.0905 288.878,77.7572 288.5,71.5C 291.5,71.5 294.5,71.5 297.5,71.5C 297.666,81.8387 297.5,92.172 297,102.5C 296.385,107.783 293.551,111.283 288.5,113C 282.574,114.11 276.908,113.444 271.5,111C 265.445,106.006 266.445,103.506 274.5,103.5C 276.706,105.199 279.206,106.199 282,106.5C 284.178,106.605 286.012,105.939 287.5,104.5C 288.634,102.034 288.801,99.367 288,96.5C 287.283,97.0442 286.783,97.7109 286.5,98.5C 281.807,102.312 276.807,102.479 271.5,99C 264.492,89.3971 265.158,80.3971 273.5,72C 277.644,69.8624 281.644,70.029 285.5,72.5 Z M 279.5,78.5 C 282.652,77.9586 285.152,78.9586 287,81.5C 287.667,84.8333 287.667,88.1667 287,91.5C 283.255,95.5661 279.922,95.2327 277,90.5C 275.773,85.938 276.607,81.938 279.5,78.5 Z"/></g>
<g><path style="opacity:0.116" fill="#bbc0ca" d="M 288.5,71.5 C 288.878,77.7572 287.878,78.0905 285.5,72.5C 286.117,72.6107 286.617,72.944 287,73.5C 287.278,72.5842 287.778,71.9175 288.5,71.5 Z"/></g>
<g><path style="opacity:0.997" fill="#293557" d="M 327.5,70.5 C 340.888,69.7185 346.888,75.8852 345.5,89C 338.809,89.1691 332.142,89.6691 325.5,90.5C 329.196,96.6723 333.363,97.0056 338,91.5C 340.381,92.435 342.881,92.7683 345.5,92.5C 344.765,97.7369 341.765,100.904 336.5,102C 322,103.5 315.5,97 317,82.5C 318.28,76.3964 321.78,72.3964 327.5,70.5 Z M 330.5,77.5 C 334.075,77.4524 336.409,79.119 337.5,82.5C 333.5,83.8333 329.5,83.8333 325.5,82.5C 326.882,80.4514 328.548,78.7847 330.5,77.5 Z"/></g>
<g><path style="opacity:0.997" fill="#233052" d="M 408.5,70.5 C 415.092,69.6404 420.592,71.6404 425,76.5C 425.5,84.8267 425.666,93.16 425.5,101.5C 422.833,101.5 420.167,101.5 417.5,101.5C 417.649,100.448 417.483,99.448 417,98.5C 411.674,103.454 406.007,103.787 400,99.5C 397.351,93.9546 398.185,89.1212 402.5,85C 407.111,83.8404 411.777,83.0071 416.5,82.5C 416.648,79.6477 415.314,77.981 412.5,77.5C 409.968,77.8642 408.135,79.1975 407,81.5C 404.619,80.565 402.119,80.2317 399.5,80.5C 400.421,75.2479 403.421,71.9146 408.5,70.5 Z M 415.5,88.5 C 416.434,89.5676 416.768,90.901 416.5,92.5C 415.488,94.876 413.655,95.876 411,95.5C 406.796,95.1021 405.963,93.4354 408.5,90.5C 410.863,89.8298 413.196,89.1632 415.5,88.5 Z"/></g>
<g><path style="opacity:0.999" fill="#1b2a4d" d="M 466.5,71.5 C 469.5,71.5 472.5,71.5 475.5,71.5C 475.5,81.5 475.5,91.5 475.5,101.5C 472.5,101.5 469.5,101.5 466.5,101.5C 466.5,91.5 466.5,81.5 466.5,71.5 Z"/></g>
<g><path style="opacity:0.999" fill="#253254" d="M 506.5,75.5 C 506.427,77.0269 507.094,78.0269 508.5,78.5C 512.045,86.4963 510.712,93.663 504.5,100C 499.012,102.915 493.345,103.248 487.5,101C 486.944,100.617 486.611,100.117 486.5,99.5C 486.027,98.0937 485.027,97.427 483.5,97.5C 480.639,92.2415 479.805,86.5748 481,80.5C 485.61,71.4046 492.777,68.5713 502.5,72C 504.093,72.9487 505.426,74.1154 506.5,75.5 Z M 494.5,77.5 C 498.948,78.6817 501.282,81.6817 501.5,86.5C 501.732,91.3051 499.566,94.3051 495,95.5C 491.14,93.786 489.307,90.786 489.5,86.5C 489.377,82.4052 491.044,79.4052 494.5,77.5 Z"/></g>
<g><path style="opacity:1" fill="#494949" d="M 41.5,70.5 C 42.9311,71.0819 44.2644,71.9152 45.5,73C 41.6767,74.4206 37.6767,75.4206 33.5,76C 31.3825,77.0491 29.7158,78.5491 28.5,80.5C 27.2878,78.7363 27.6212,77.0697 29.5,75.5C 33.3758,73.5313 37.3758,71.8646 41.5,70.5 Z"/></g>
<g><path style="opacity:1" fill="#383838" d="M 67.5,74.5 C 68.8333,73.5 70.1667,72.5 71.5,71.5C 72.9669,70.7084 74.3002,70.7084 75.5,71.5C 73.2482,74.3676 71.0816,77.3676 69,80.5C 68.3162,79.2161 68.4829,78.0495 69.5,77C 68.6195,76.2917 67.9528,75.4584 67.5,74.5 Z"/></g>
<g><path style="opacity:0.958" fill="#bfbfbf" d="M 89.5,59.5 C 89.1231,61.258 88.4565,62.9246 87.5,64.5C 88.767,66.3707 88.767,68.2041 87.5,70C 91.1417,71.2696 94.8084,72.4362 98.5,73.5C 98.8645,75.7326 99.8645,77.566 101.5,79C 100.321,81.7957 100.321,84.6291 101.5,87.5C 101.833,88.1667 102.167,88.8333 102.5,89.5C 101.698,90.9516 101.198,92.6183 101,94.5C 99.6667,91.8333 97.6667,89.8333 95,88.5C 94.0853,89.3279 93.4186,90.3279 93,91.5C 92,90.1667 91,88.8333 90,87.5C 89.8038,89.2861 88.9705,90.6195 87.5,91.5C 87.1667,91.1667 86.8333,90.8333 86.5,90.5C 88.4013,85.6977 91.068,81.3643 94.5,77.5C 94.3333,77.1667 94.1667,76.8333 94,76.5C 92.7581,77.8721 91.2581,78.8721 89.5,79.5C 88.2888,78.7261 88.2888,77.8928 89.5,77C 88.5165,76.4092 87.8499,76.7425 87.5,78C 84.1665,84.3437 84.1665,90.5104 87.5,96.5C 88.2508,95.624 88.7508,94.624 89,93.5C 90.1597,95.797 91.1597,95.4637 92,92.5C 92.4396,94.0762 93.273,95.4096 94.5,96.5C 93.6171,97.548 92.9504,98.7147 92.5,100C 94.1709,102.396 95.8376,104.729 97.5,107C 96.5399,108.419 95.7065,109.919 95,111.5C 94.6667,110.833 94.3333,110.167 94,109.5C 93.7679,110.737 93.2679,111.737 92.5,112.5C 92.1667,111.833 91.8333,111.167 91.5,110.5C 94.398,107.107 93.7314,105.441 89.5,105.5C 91.3446,103.464 91.8446,101.13 91,98.5C 89.9563,99.6226 89.2896,100.956 89,102.5C 88.3333,101.833 87.6667,101.167 87,100.5C 86.7837,102.384 86.117,104.051 85,105.5C 83.3876,105.048 82.3876,103.715 82,101.5C 81.7679,102.737 81.2679,103.737 80.5,104.5C 80.5,102.167 80.5,99.8333 80.5,97.5C 81.6693,95.7256 82.6693,93.8922 83.5,92C 82.7476,91.3292 82.4142,90.4959 82.5,89.5C 82.6567,88.1266 82.49,86.7932 82,85.5C 80.1585,87.1591 78.9919,89.1591 78.5,91.5C 77.3034,90.739 76.4701,89.0723 76,86.5C 75.3131,88.5675 75.4798,90.5675 76.5,92.5C 75.696,93.9411 75.0294,95.4411 74.5,97C 74.5481,98.033 74.8814,98.3663 75.5,98C 76.1905,96.9326 76.6905,95.7659 77,94.5C 77.4828,95.448 77.6495,96.448 77.5,97.5C 75.9516,100.951 73.9516,101.284 71.5,98.5C 72.4731,96.9317 72.6397,95.265 72,93.5C 71.586,93.9574 71.086,94.2907 70.5,94.5C 69.646,93.4783 68.646,92.6449 67.5,92C 67.7284,91.6012 68.0618,91.4346 68.5,91.5C 70.0861,92.4132 71.5861,92.4132 73,91.5C 73.6667,90.8333 73.6667,90.1667 73,89.5C 71.8545,90.6843 70.6879,90.6843 69.5,89.5C 70.5751,87.1445 70.5751,84.8111 69.5,82.5C 68.1408,83.6243 67.1408,84.9577 66.5,86.5C 66.0679,85.2905 65.4013,84.2905 64.5,83.5C 65.209,82.596 66.209,82.2627 67.5,82.5C 67.6567,81.1266 67.49,79.7932 67,78.5C 65.7025,79.7836 64.5358,79.6169 63.5,78C 64.7051,76.6244 66.0384,75.4577 67.5,74.5C 67.9528,75.4584 68.6195,76.2917 69.5,77C 68.4829,78.0495 68.3162,79.2161 69,80.5C 71.0816,77.3676 73.2482,74.3676 75.5,71.5C 74.3002,70.7084 72.9669,70.7084 71.5,71.5C 70.791,70.596 69.791,70.2627 68.5,70.5C 72.3129,70.3282 75.9796,68.9948 79.5,66.5C 78.675,65.6143 77.675,65.281 76.5,65.5C 78.6684,64.3697 81.0017,64.3697 83.5,65.5C 85.5689,65.1758 85.9023,64.3425 84.5,63C 86.5902,62.3305 88.2568,61.1639 89.5,59.5 Z"/></g>
<g><path style="opacity:1" fill="#3d3d3d" d="M 79.5,71.5 C 80.2389,71.369 80.9056,71.5357 81.5,72C 79.6126,75.6586 78.1126,79.4919 77,83.5C 74.2279,78.5127 75.0613,74.5127 79.5,71.5 Z"/></g>
<g><path style="opacity:1" fill="#8a7762" d="M 136.5,50.5 C 137.167,50.5 137.833,50.5 138.5,50.5C 147.939,55.9732 150.772,63.9732 147,74.5C 146.125,77.2146 144.292,78.5479 141.5,78.5C 141.33,77.1779 141.663,76.0113 142.5,75C 141.915,73.6976 141.249,72.531 140.5,71.5C 140.918,70.7784 141.584,70.2784 142.5,70C 141.29,68.9609 140.29,67.7942 139.5,66.5C 141.017,66.5106 142.184,67.1772 143,68.5C 143.17,70.7148 143.837,72.7148 145,74.5C 147.544,68.0655 146.878,62.0655 143,56.5C 142.79,58.0581 142.29,59.3915 141.5,60.5C 141.713,56.0901 140.046,52.7568 136.5,50.5 Z"/></g>
<g><path style="opacity:1" fill="#3b3b3b" d="M 83.5,73.5 C 87.6059,75.2925 87.4392,76.9592 83,78.5C 82.3333,79.8333 81.6667,81.1667 81,82.5C 80.1301,81.8921 79.6301,81.0588 79.5,80C 80.7125,77.7381 82.0459,75.5715 83.5,73.5 Z"/></g>
<g><path style="opacity:0.824" fill="#969696" d="M 136.5,72.5 C 132.647,73.1663 128.647,73.833 124.5,74.5C 121.453,76.7169 119.953,79.7169 120,83.5C 119.292,82.6195 118.458,81.9528 117.5,81.5C 118.141,80.5178 118.807,79.5178 119.5,78.5C 118.757,77.8182 118.091,77.1515 117.5,76.5C 119.572,74.2741 122.072,72.6074 125,71.5C 128.73,72.4601 132.563,72.7935 136.5,72.5 Z"/></g>
<g><path style="opacity:0.498" fill="#8f97a8" d="M 506.5,75.5 C 507.906,75.9731 508.573,76.9731 508.5,78.5C 507.094,78.0269 506.427,77.0269 506.5,75.5 Z"/></g>
<g><path style="opacity:0.875" fill="#838b9f" d="M 384.5,71.5 C 385.629,73.6282 385.796,75.9615 385,78.5C 384.329,79.2524 383.496,79.5858 382.5,79.5C 384.226,77.1799 384.893,74.5133 384.5,71.5 Z"/></g>
<g><path style="opacity:0.361" fill="#bdbcbc" d="M 20.5,76.5 C 21.3543,78.035 21.3543,79.3684 20.5,80.5C 19.7611,80.631 19.0944,80.4643 18.5,80C 19.0848,78.6976 19.7515,77.531 20.5,76.5 Z"/></g>
<g><path style="opacity:1" fill="#636363" d="M 54.5,81.5 C 53.0695,81.4208 51.7362,81.7542 50.5,82.5C 50.1667,81.8333 49.8333,81.1667 49.5,80.5C 46.6772,83.8161 43.0106,85.8161 38.5,86.5C 38.5923,84.1523 39.5923,82.4856 41.5,81.5C 40.1498,82.6499 40.3164,83.3166 42,83.5C 43.6255,82.7113 45.1255,81.7113 46.5,80.5C 46.6492,77.7437 48.1492,75.4104 51,73.5C 50.9813,75.1075 50.8146,76.7741 50.5,78.5C 52.2259,78.1854 53.8925,78.0187 55.5,78C 54.6634,79.0113 54.33,80.1779 54.5,81.5 Z"/></g>
<g><path style="opacity:0.686" fill="#8892a4" d="M 236.5,78.5 C 237.167,79.1667 237.833,79.8333 238.5,80.5C 237.325,80.719 236.325,80.3857 235.5,79.5C 235.624,78.8933 235.957,78.56 236.5,78.5 Z"/></g>
<g><path style="opacity:1" fill="#3b3b3b" d="M 41.5,81.5 C 39.5923,82.4856 38.5923,84.1523 38.5,86.5C 38.1667,87.1667 37.8333,87.8333 37.5,88.5C 36.9779,86.7809 35.9779,85.4475 34.5,84.5C 36.1992,81.8037 38.5326,79.8037 41.5,78.5C 42.5624,79.4246 42.5624,80.4246 41.5,81.5 Z"/></g>
<g><path style="opacity:0.992" fill="#5f5f5f" d="M 54.5,81.5 C 55.552,81.3505 56.552,81.5172 57.5,82C 55.7045,83.4876 53.7045,84.1542 51.5,84C 52.5707,83.1482 53.5707,82.3149 54.5,81.5 Z"/></g>
<g><path style="opacity:0.875" fill="#8991a4" d="M 253.5,81.5 C 252.817,83.1765 251.483,83.8432 249.5,83.5C 250.671,82.6554 252.005,81.9887 253.5,81.5 Z"/></g>
<g><path style="opacity:1" fill="#5b5b5b" d="M 96.5,80.5 C 97.1174,80.6107 97.6174,80.944 98,81.5C 100.368,91.1483 99.5351,91.6483 95.5,83C 95.7432,82.0979 96.0766,81.2646 96.5,80.5 Z"/></g>
<g><path style="opacity:0.792" fill="#979797" d="M 20.5,81.5 C 20.5905,84.1522 19.9238,86.4855 18.5,88.5C 18.4095,85.8478 19.0762,83.5145 20.5,81.5 Z"/></g>
<g><path style="opacity:0.039" fill="#cccccd" d="M 116.5,82.5 C 115.952,84.5323 114.619,85.5323 112.5,85.5C 112.393,83.6214 112.893,83.2881 114,84.5C 114.417,83.244 115.25,82.5774 116.5,82.5 Z"/></g>
<g><path style="opacity:0.965" fill="#888888" d="M 33.5,84.5 C 33.8333,84.5 34.1667,84.5 34.5,84.5C 35.9779,85.4475 36.9779,86.7809 37.5,88.5C 37.719,89.675 37.3857,90.675 36.5,91.5C 35.8333,89.8333 35.1667,88.1667 34.5,86.5C 33.914,86.7093 33.414,87.0426 33,87.5C 31.4887,93.1899 28.9887,98.1899 25.5,102.5C 25.9557,98.3357 26.6223,94.3357 27.5,90.5C 27.4346,90.9382 27.6012,91.2716 28,91.5C 30.3245,89.4992 32.1579,87.1658 33.5,84.5 Z"/></g>
<g><path style="opacity:1" fill="#636262" d="M 117.5,76.5 C 118.091,77.1515 118.757,77.8182 119.5,78.5C 118.807,79.5178 118.141,80.5178 117.5,81.5C 117.5,82.1667 117.167,82.5 116.5,82.5C 115.25,82.5774 114.417,83.244 114,84.5C 112.893,83.2881 112.393,83.6214 112.5,85.5C 112.5,85.8333 112.5,86.1667 112.5,86.5C 112.5,86.8333 112.5,87.1667 112.5,87.5C 110.795,86.9119 109.128,86.5786 107.5,86.5C 106.386,85.277 106.219,83.9437 107,82.5C 107.333,82.8333 107.667,83.1667 108,83.5C 111.449,81.4291 114.616,79.0958 117.5,76.5 Z"/></g>
<g><path style="opacity:1" fill="#3c3c3c" d="M 53.5,95.5 C 52.9348,93.58 51.9348,91.9133 50.5,90.5C 52.0437,86.904 54.7103,85.0707 58.5,85C 55.7854,87.9649 54.1188,91.4649 53.5,95.5 Z"/></g>
<g><path style="opacity:1" fill="#424242" d="M 64.5,83.5 C 65.4013,84.2905 66.0679,85.2905 66.5,86.5C 64.1697,88.5844 63.003,91.251 63,94.5C 60.8828,90.5284 61.3828,86.8617 64.5,83.5 Z"/></g>
<g><path style="opacity:0.376" fill="#8f98a9" d="M 415.5,88.5 C 415.56,87.9569 415.893,87.6236 416.5,87.5C 417.788,89.2985 417.788,90.9652 416.5,92.5C 416.768,90.901 416.434,89.5676 415.5,88.5 Z"/></g>
<g><path style="opacity:1" fill="#4f4f4f" d="M 82.5,89.5 C 81.5326,90.8062 80.1993,91.4729 78.5,91.5C 78.9919,89.1591 80.1585,87.1591 82,85.5C 82.49,86.7932 82.6567,88.1266 82.5,89.5 Z"/></g>
<g><path style="opacity:0.999" fill="#373737" d="M 27.5,90.5 C 26.6223,94.3357 25.9557,98.3357 25.5,102.5C 25.933,105.166 26.433,107.832 27,110.5C 28.6077,105.681 30.6077,101.014 33,96.5C 33.414,96.9574 33.914,97.2907 34.5,97.5C 36.3999,95.3841 38.7332,94.0507 41.5,93.5C 41.0997,95.3767 40.0997,96.8767 38.5,98C 38.974,99.7043 39.1407,101.538 39,103.5C 41.2303,102.511 43.0636,103.178 44.5,105.5C 45.7387,105.058 46.7387,104.391 47.5,103.5C 49.1388,103.926 50.4721,103.926 51.5,103.5C 54.3377,102.83 56.8377,101.496 59,99.5C 59.6667,100.167 60.3333,100.833 61,101.5C 62.4087,100.219 63.9087,99.2189 65.5,98.5C 67.9818,98.2043 69.9818,98.2043 71.5,98.5C 73.9516,101.284 75.9516,100.951 77.5,97.5C 78.7978,96.8843 79.7978,96.8843 80.5,97.5C 80.5,99.8333 80.5,102.167 80.5,104.5C 79.475,104.897 79.3083,105.563 80,106.5C 81,106.167 82,105.833 83,105.5C 83.4828,106.448 83.6495,107.448 83.5,108.5C 83.5,109.167 83.5,109.833 83.5,110.5C 82.1224,111.545 81.1224,112.878 80.5,114.5C 80.0269,115.906 79.0269,116.573 77.5,116.5C 76.6618,116.158 76.3284,115.492 76.5,114.5C 76.7947,112.265 76.4614,110.265 75.5,108.5C 74.0151,104.581 73.0151,104.914 72.5,109.5C 69.8939,114.769 66.2272,119.103 61.5,122.5C 59.7356,123.326 58.4023,124.659 57.5,126.5C 56.5041,126.414 55.6708,126.748 55,127.5C 54.8184,124.774 54.3184,122.107 53.5,119.5C 52.8933,119.624 52.56,119.957 52.5,120.5C 51.2141,123.117 49.5475,125.45 47.5,127.5C 46.7784,127.918 46.2784,128.584 46,129.5C 45.7679,128.263 45.2679,127.263 44.5,126.5C 44.6621,124.473 44.4955,122.473 44,120.5C 43.2828,121.044 42.7828,121.711 42.5,122.5C 41.1667,122.5 40.5,123.167 40.5,124.5C 39.1667,126.5 37.5,128.167 35.5,129.5C 33.744,128.448 33.0773,126.781 33.5,124.5C 33.5,124.167 33.5,123.833 33.5,123.5C 34.1667,123.5 34.5,123.167 34.5,122.5C 35.5735,121.749 35.7401,120.749 35,119.5C 34.2828,120.044 33.7828,120.711 33.5,121.5C 32.5,121.833 31.8333,122.5 31.5,123.5C 30.7029,124.478 30.0362,124.145 29.5,122.5C 30.1272,121.583 30.4606,120.583 30.5,119.5C 31.0431,119.44 31.3764,119.107 31.5,118.5C 31.1543,117.304 30.6543,117.304 30,118.5C 29.6667,117.167 29.3333,115.833 29,114.5C 28.2828,115.044 27.7828,115.711 27.5,116.5C 27.5,117.167 27.1667,117.5 26.5,117.5C 24.8773,116.509 23.8773,117.176 23.5,119.5C 22.6981,118.048 22.1981,116.382 22,114.5C 20.9614,115.244 20.4614,116.244 20.5,117.5C 19.8333,118.833 18.8333,119.833 17.5,120.5C 16.5084,120.672 15.8417,120.338 15.5,119.5C 15.7959,117.597 16.4625,115.93 17.5,114.5C 18.7928,112.636 18.7928,110.636 17.5,108.5C 16.8933,108.624 16.56,108.957 16.5,109.5C 14.9519,109.179 14.2852,108.179 14.5,106.5C 15.9815,100.413 17.3149,94.413 18.5,88.5C 19.9238,86.4855 20.5905,84.1522 20.5,81.5C 20.5,81.1667 20.5,80.8333 20.5,80.5C 21.3543,79.3684 21.3543,78.035 20.5,76.5C 21.4959,76.5858 22.3292,76.2524 23,75.5C 23.1667,76 23.3333,76.5 23.5,77C 20.8487,82.3485 21.0154,87.5152 24,92.5C 24.6152,90.8839 25.6152,89.5505 27,88.5C 27.4643,89.0944 27.631,89.7611 27.5,90.5 Z"/></g>
<g><path style="opacity:0.914" fill="#585959" d="M 69.5,89.5 C 70.6879,90.6843 71.8545,90.6843 73,89.5C 73.6667,90.1667 73.6667,90.8333 73,91.5C 71.5861,92.4132 70.0861,92.4132 68.5,91.5C 68.8333,90.8333 69.1667,90.1667 69.5,89.5 Z"/></g>
<g><path style="opacity:0.976" fill="#929292" d="M 112.5,86.5 C 113.165,88.3691 113.831,90.3691 114.5,92.5C 116.261,93.0351 117.594,94.0351 118.5,95.5C 116.213,96.3552 113.88,96.5218 111.5,96C 113.559,97.1855 113.726,98.3521 112,99.5C 110.343,98.5159 108.677,97.5159 107,96.5C 106.493,97.9961 106.993,99.1627 108.5,100C 106.667,100.5 105.5,101.667 105,103.5C 103.893,102.288 103.393,102.621 103.5,104.5C 102.703,108.029 101.703,108.195 100.5,105C 101.249,103.266 101.749,101.433 102,99.5C 103.011,100.337 104.178,100.67 105.5,100.5C 105.52,98.857 104.853,97.5237 103.5,96.5C 105.412,94.4585 105.579,92.4585 104,90.5C 102.893,91.7119 102.393,91.3786 102.5,89.5C 102.167,88.8333 101.833,88.1667 101.5,87.5C 103.201,87.9662 104.701,87.9662 106,87.5C 106.991,88.9389 108.324,89.9389 110,90.5C 111.041,89.5289 111.874,88.5289 112.5,87.5C 112.5,87.1667 112.5,86.8333 112.5,86.5 Z"/></g>
<g><path style="opacity:0.922" fill="#646464" d="M 50.5,90.5 C 48.6459,93.1059 46.3125,94.1059 43.5,93.5C 45.4261,91.0234 47.7594,90.0234 50.5,90.5 Z"/></g>
<g><path style="opacity:0.914" fill="#a3a3a3" d="M 50.5,90.5 C 51.9348,91.9133 52.9348,93.58 53.5,95.5C 53.369,96.2389 53.5357,96.9056 54,97.5C 54.7083,96.6195 55.5416,95.9528 56.5,95.5C 56.2488,97.1703 55.5822,98.6703 54.5,100C 57.8929,99.4594 59.5596,97.2928 59.5,93.5C 60.4793,94.7653 61.4793,96.0986 62.5,97.5C 63.1667,97.1667 63.8333,96.8333 64.5,96.5C 64.7871,97.2003 65.1205,97.8669 65.5,98.5C 63.9087,99.2189 62.4087,100.219 61,101.5C 60.3333,100.833 59.6667,100.167 59,99.5C 56.8377,101.496 54.3377,102.83 51.5,103.5C 48.8749,102.559 48.8749,101.393 51.5,100C 50.8971,98.1746 50.2304,96.3413 49.5,94.5C 47.5,96.1667 45.5,97.8333 43.5,99.5C 44.5881,103.386 45.4215,103.386 46,99.5C 47.1882,100.563 47.6882,101.897 47.5,103.5C 46.7387,104.391 45.7387,105.058 44.5,105.5C 43.0636,103.178 41.2303,102.511 39,103.5C 39.1407,101.538 38.974,99.7043 38.5,98C 40.0997,96.8767 41.0997,95.3767 41.5,93.5C 41.9377,92.4937 42.6043,92.4937 43.5,93.5C 46.3125,94.1059 48.6459,93.1059 50.5,90.5 Z"/></g>
<g><path style="opacity:0.894" fill="#828282" d="M 78.5,91.5 C 80.1993,91.4729 81.5326,90.8062 82.5,89.5C 82.4142,90.4959 82.7476,91.3292 83.5,92C 82.6693,93.8922 81.6693,95.7256 80.5,97.5C 79.7978,96.8843 78.7978,96.8843 77.5,97.5C 77.6495,96.448 77.4828,95.448 77,94.5C 76.6905,95.7659 76.1905,96.9326 75.5,98C 74.8814,98.3663 74.5481,98.033 74.5,97C 75.0294,95.4411 75.696,93.9411 76.5,92.5C 75.4798,90.5675 75.3131,88.5675 76,86.5C 76.4701,89.0723 77.3034,90.739 78.5,91.5 Z"/></g>
<g><path style="opacity:1" fill="#363636" d="M 59.5,93.5 C 59.5596,97.2928 57.8929,99.4594 54.5,100C 55.5822,98.6703 56.2488,97.1703 56.5,95.5C 56.5,94.1667 56.5,92.8333 56.5,91.5C 58.1788,91.2852 59.1788,91.9519 59.5,93.5 Z"/></g>
<g><path style="opacity:0.121" fill="#c9ced5" d="M 287.5,104.5 C 287.795,102.265 287.461,100.265 286.5,98.5C 286.783,97.7109 287.283,97.0442 288,96.5C 288.801,99.367 288.634,102.034 287.5,104.5 Z"/></g>
<g><path style="opacity:0.8" fill="#8790a2" d="M 483.5,97.5 C 485.027,97.427 486.027,98.0937 486.5,99.5C 484.973,99.573 483.973,98.9063 483.5,97.5 Z"/></g>
<g><path style="opacity:0.49" fill="#8c96a7" d="M 254.5,101.5 C 253.833,100.833 253.167,100.167 252.5,99.5C 252.783,98.7109 253.283,98.0442 254,97.5C 254.49,98.7932 254.657,100.127 254.5,101.5 Z"/></g>
<g><path style="opacity:0.6" fill="#a2a2a2" d="M 120.5,97.5 C 122.23,98.0256 123.564,99.0256 124.5,100.5C 122.368,100.446 121.035,99.4456 120.5,97.5 Z"/></g>
<g><path style="opacity:0.788" fill="#929292" d="M 33.5,99.5 C 35.3079,100.918 35.9746,102.918 35.5,105.5C 34.5,105.5 33.5,105.5 32.5,105.5C 32.8333,103.5 33.1667,101.5 33.5,99.5 Z"/></g>
<g><path style="opacity:1" fill="#333333" d="M 118.5,95.5 C 119.5,95.8333 120.167,96.5 120.5,97.5C 121.035,99.4456 122.368,100.446 124.5,100.5C 125.833,101.167 126.833,102.167 127.5,103.5C 126.955,105.399 127.622,107.066 129.5,108.5C 129.672,109.492 129.338,110.158 128.5,110.5C 127.5,110.167 126.833,109.5 126.5,108.5C 126.027,107.094 125.027,106.427 123.5,106.5C 123.027,105.094 122.027,104.427 120.5,104.5C 120.158,103.662 119.492,103.328 118.5,103.5C 118.167,102.167 117.833,102.167 117.5,103.5C 116.209,104.473 116.209,105.473 117.5,106.5C 115.955,107.452 114.288,107.785 112.5,107.5C 112.263,108.791 112.596,109.791 113.5,110.5C 114.124,115.018 114.124,119.352 113.5,123.5C 112.833,123.5 112.5,123.167 112.5,122.5C 111.155,120.303 109.989,117.97 109,115.5C 108.259,116.641 107.425,116.641 106.5,115.5C 105.227,116.257 105.227,116.923 106.5,117.5C 106.5,118.5 106.5,119.5 106.5,120.5C 104.837,122.438 104.171,124.772 104.5,127.5C 104.737,128.791 104.404,129.791 103.5,130.5C 102.609,131.11 101.609,131.443 100.5,131.5C 98.953,130.232 97.953,128.565 97.5,126.5C 97.8076,124.076 97.4742,121.743 96.5,119.5C 95.7025,119.957 95.3691,120.624 95.5,121.5C 94.391,121.443 93.391,121.11 92.5,120.5C 92.6567,119.127 92.49,117.793 92,116.5C 91.6174,117.056 91.1174,117.389 90.5,117.5C 89.596,116.791 89.2627,115.791 89.5,114.5C 88.4975,112.989 87.8308,111.322 87.5,109.5C 88.7206,108.972 89.8873,108.305 91,107.5C 91.4828,108.448 91.6495,109.448 91.5,110.5C 91.8333,111.167 92.1667,111.833 92.5,112.5C 93.4796,116.326 94.3129,116.326 95,112.5C 99.6854,118.009 100.519,117.342 97.5,110.5C 97.8333,110.167 98.1667,109.833 98.5,109.5C 99.5836,110.665 100.417,111.998 101,113.5C 102.069,110.792 103.236,108.125 104.5,105.5C 104.376,104.893 104.043,104.56 103.5,104.5C 103.393,102.621 103.893,102.288 105,103.5C 105.5,101.667 106.667,100.5 108.5,100C 106.993,99.1627 106.493,97.9961 107,96.5C 108.677,97.5159 110.343,98.5159 112,99.5C 113.726,98.3521 113.559,97.1855 111.5,96C 113.88,96.5218 116.213,96.3552 118.5,95.5 Z"/></g>
<g><path style="opacity:0.729" fill="#767676" d="M 51.5,103.5 C 50.4721,103.926 49.1388,103.926 47.5,103.5C 47.6882,101.897 47.1882,100.563 46,99.5C 45.4215,103.386 44.5881,103.386 43.5,99.5C 45.5,97.8333 47.5,96.1667 49.5,94.5C 50.2304,96.3413 50.8971,98.1746 51.5,100C 48.8749,101.393 48.8749,102.559 51.5,103.5 Z"/></g>
<g><path style="opacity:1" fill="#585858" d="M 91.5,110.5 C 91.6495,109.448 91.4828,108.448 91,107.5C 89.8873,108.305 88.7206,108.972 87.5,109.5C 87.0133,108.527 86.5133,107.527 86,106.5C 85.2917,107.381 84.4584,108.047 83.5,108.5C 83.6495,107.448 83.4828,106.448 83,105.5C 82,105.833 81,106.167 80,106.5C 79.3083,105.563 79.475,104.897 80.5,104.5C 81.2679,103.737 81.7679,102.737 82,101.5C 82.3876,103.715 83.3876,105.048 85,105.5C 86.117,104.051 86.7837,102.384 87,100.5C 87.6667,101.167 88.3333,101.833 89,102.5C 89.2896,100.956 89.9563,99.6226 91,98.5C 91.8446,101.13 91.3446,103.464 89.5,105.5C 93.7314,105.441 94.398,107.107 91.5,110.5 Z"/></g>
<g><path style="opacity:0.518" fill="#bababa" d="M 120.5,104.5 C 122.027,104.427 123.027,105.094 123.5,106.5C 121.973,106.573 120.973,105.906 120.5,104.5 Z"/></g>
<g><path style="opacity:0.016" fill="#dedede" d="M 127.5,103.5 C 129.213,104.635 129.88,106.302 129.5,108.5C 127.622,107.066 126.955,105.399 127.5,103.5 Z"/></g>
<g><path style="opacity:0.237" fill="#b5b4b4" d="M 46.5,105.5 C 47.6225,107.288 47.7891,109.288 47,111.5C 45.4173,111.493 43.7506,111.826 42,112.5C 41.3333,111.833 41.3333,111.167 42,110.5C 44.3913,109.61 45.8913,107.943 46.5,105.5 Z"/></g>
<g><path style="opacity:0.682" fill="#8f8f8f" d="M 117.5,103.5 C 117.833,103.5 118.167,103.5 118.5,103.5C 118.421,104.93 118.754,106.264 119.5,107.5C 117.025,107.964 115.025,108.964 113.5,110.5C 112.596,109.791 112.263,108.791 112.5,107.5C 114.288,107.785 115.955,107.452 117.5,106.5C 116.209,105.473 116.209,104.473 117.5,103.5 Z"/></g>
<g><path style="opacity:0.227" fill="#c1c1c1" d="M 123.5,106.5 C 125.027,106.427 126.027,107.094 126.5,108.5C 124.973,108.573 123.973,107.906 123.5,106.5 Z"/></g>
<g><path style="opacity:0.263" fill="#d8d8d8" d="M 75.5,108.5 C 74.8946,110.481 73.8946,110.815 72.5,109.5C 73.0151,104.914 74.0151,104.581 75.5,108.5 Z"/></g>
<g><path style="opacity:0.957" fill="#5f5f5f" d="M 102.5,89.5 C 102.393,91.3786 102.893,91.7119 104,90.5C 105.579,92.4585 105.412,94.4585 103.5,96.5C 104.853,97.5237 105.52,98.857 105.5,100.5C 104.178,100.67 103.011,100.337 102,99.5C 101.749,101.433 101.249,103.266 100.5,105C 101.703,108.195 102.703,108.029 103.5,104.5C 104.043,104.56 104.376,104.893 104.5,105.5C 103.236,108.125 102.069,110.792 101,113.5C 100.417,111.998 99.5836,110.665 98.5,109.5C 98.1667,109.833 97.8333,110.167 97.5,110.5C 100.519,117.342 99.6854,118.009 95,112.5C 94.3129,116.326 93.4796,116.326 92.5,112.5C 93.2679,111.737 93.7679,110.737 94,109.5C 94.3333,110.167 94.6667,110.833 95,111.5C 95.7065,109.919 96.5399,108.419 97.5,107C 95.8376,104.729 94.1709,102.396 92.5,100C 92.9504,98.7147 93.6171,97.548 94.5,96.5C 93.273,95.4096 92.4396,94.0762 92,92.5C 91.1597,95.4637 90.1597,95.797 89,93.5C 88.7508,94.624 88.2508,95.624 87.5,96.5C 84.1665,90.5104 84.1665,84.3437 87.5,78C 87.8499,76.7425 88.5165,76.4092 89.5,77C 88.2888,77.8928 88.2888,78.7261 89.5,79.5C 91.2581,78.8721 92.7581,77.8721 94,76.5C 94.1667,76.8333 94.3333,77.1667 94.5,77.5C 91.068,81.3643 88.4013,85.6977 86.5,90.5C 86.8333,90.8333 87.1667,91.1667 87.5,91.5C 88.9705,90.6195 89.8038,89.2861 90,87.5C 91,88.8333 92,90.1667 93,91.5C 93.4186,90.3279 94.0853,89.3279 95,88.5C 97.6667,89.8333 99.6667,91.8333 101,94.5C 101.198,92.6183 101.698,90.9516 102.5,89.5 Z"/></g>
<g><path style="opacity:0.937" fill="#a0a0a0" d="M 14.5,106.5 C 14.2852,108.179 14.9519,109.179 16.5,109.5C 15.5346,112.085 14.2012,112.585 12.5,111C 12.899,109.272 13.5657,107.772 14.5,106.5 Z"/></g>
<g><path style="opacity:0.125" fill="#cacaca" d="M 16.5,109.5 C 16.56,108.957 16.8933,108.624 17.5,108.5C 18.7928,110.636 18.7928,112.636 17.5,114.5C 17.7845,112.585 17.4511,110.919 16.5,109.5 Z"/></g>
<g><path style="opacity:0.314" fill="#cdcdce" d="M 129.5,108.5 C 130.598,109.601 130.765,110.934 130,112.5C 129.283,111.956 128.783,111.289 128.5,110.5C 129.338,110.158 129.672,109.492 129.5,108.5 Z"/></g>
<g><path style="opacity:0.584" fill="#a9a9a9" d="M 87.5,109.5 C 87.8308,111.322 88.4975,112.989 89.5,114.5C 88.8826,114.389 88.3826,114.056 88,113.5C 83.3335,121.552 82.5001,121.052 85.5,112C 84.9558,111.283 84.2891,110.783 83.5,110.5C 83.5,109.833 83.5,109.167 83.5,108.5C 84.4584,108.047 85.2917,107.381 86,106.5C 86.5133,107.527 87.0133,108.527 87.5,109.5 Z"/></g>
<g><path style="opacity:0.251" fill="#c9c9c9" d="M 83.5,110.5 C 83.5086,112.308 83.0086,113.975 82,115.5C 81.6174,114.944 81.1174,114.611 80.5,114.5C 81.1224,112.878 82.1224,111.545 83.5,110.5 Z"/></g>
<g><path style="opacity:0.49" fill="#b4b4b4" d="M 76.5,114.5 C 76.3284,115.492 76.6618,116.158 77.5,116.5C 76.6977,117.885 76.0311,117.718 75.5,116C 75.5699,115.235 75.9033,114.735 76.5,114.5 Z"/></g>
<g><path style="opacity:0.086" fill="#cecece" d="M 113.5,110.5 C 115.435,114.945 115.768,119.612 114.5,124.5C 113.893,124.376 113.56,124.043 113.5,123.5C 114.124,119.352 114.124,115.018 113.5,110.5 Z"/></g>
<g><path style="opacity:0.4" fill="#c7c7c7" d="M 30.5,119.5 C 29.8826,119.611 29.3826,119.944 29,120.5C 28.79,118.942 28.29,117.609 27.5,116.5C 27.7828,115.711 28.2828,115.044 29,114.5C 29.3333,115.833 29.6667,117.167 30,118.5C 30.6543,117.304 31.1543,117.304 31.5,118.5C 31.3764,119.107 31.0431,119.44 30.5,119.5 Z"/></g>
<g><path style="opacity:0.353" fill="#c2c1c2" d="M 92.5,120.5 C 91.5987,119.71 90.9321,118.71 90.5,117.5C 91.1174,117.389 91.6174,117.056 92,116.5C 92.49,117.793 92.6567,119.127 92.5,120.5 Z"/></g>
<g><path style="opacity:0.047" fill="#c7c7c7" d="M 26.5,117.5 C 26.0269,118.906 25.0269,119.573 23.5,119.5C 23.8773,117.176 24.8773,116.509 26.5,117.5 Z"/></g>
<g><path style="opacity:0.561" fill="#abaaaa" d="M 23.5,119.5 C 23.5386,120.756 23.0386,121.756 22,122.5C 21.8019,120.618 21.3019,118.952 20.5,117.5C 20.4614,116.244 20.9614,115.244 22,114.5C 22.1981,116.382 22.6981,118.048 23.5,119.5 Z"/></g>
<g><path style="opacity:0.384" fill="#c7c6c7" d="M 15.5,119.5 C 15.8417,120.338 16.5084,120.672 17.5,120.5C 14.8105,123.374 14.1439,123.041 15.5,119.5 Z"/></g>
<g><path style="opacity:0.357" fill="#9b9a9a" d="M 34.5,122.5 C 34.5,121.833 34.1667,121.5 33.5,121.5C 33.7828,120.711 34.2828,120.044 35,119.5C 35.7401,120.749 35.5735,121.749 34.5,122.5 Z"/></g>
<g><path style="opacity:0.075" fill="#c5c4c5" d="M 112.5,122.5 C 111.542,122.047 110.708,121.381 110,120.5C 109.667,120.833 109.333,121.167 109,121.5C 108.066,120.142 107.232,118.808 106.5,117.5C 105.227,116.923 105.227,116.257 106.5,115.5C 107.425,116.641 108.259,116.641 109,115.5C 109.989,117.97 111.155,120.303 112.5,122.5 Z"/></g>
<g><path style="opacity:0.188" fill="#cecdce" d="M 92.5,120.5 C 93.391,121.11 94.391,121.443 95.5,121.5C 94.0527,122.885 93.0527,122.552 92.5,120.5 Z"/></g>
<g><path style="opacity:0.012" fill="#d3d3d3" d="M 33.5,121.5 C 34.1667,121.5 34.5,121.833 34.5,122.5C 34.5,123.167 34.1667,123.5 33.5,123.5C 32.8333,123.5 32.1667,123.5 31.5,123.5C 31.8333,122.5 32.5,121.833 33.5,121.5 Z"/></g>
<g><path style="opacity:0.094" fill="#dbdbdb" d="M 42.5,122.5 C 42.1667,123.5 41.5,124.167 40.5,124.5C 40.5,123.167 41.1667,122.5 42.5,122.5 Z"/></g>
<g><path style="opacity:0.482" fill="#adacad" d="M 97.5,126.5 C 96.8333,124.833 96.1667,123.167 95.5,121.5C 95.3691,120.624 95.7025,119.957 96.5,119.5C 97.4742,121.743 97.8076,124.076 97.5,126.5 Z"/></g>
<g><path style="opacity:0.231" fill="#aaa9aa" d="M 52.5,120.5 C 52.56,119.957 52.8933,119.624 53.5,119.5C 54.3184,122.107 54.8184,124.774 55,127.5C 55.6708,126.748 56.5041,126.414 57.5,126.5C 56.5213,128.145 55.188,129.479 53.5,130.5C 53.5643,127.098 53.2309,123.765 52.5,120.5 Z"/></g>
<g><path style="opacity:0.329" fill="#cccccc" d="M 106.5,120.5 C 106.279,123.067 105.612,125.401 104.5,127.5C 104.171,124.772 104.837,122.438 106.5,120.5 Z"/></g>
<g><path style="opacity:0.325" fill="#b0afaf" d="M 61.5,122.5 C 61.4754,125.179 60.142,126.512 57.5,126.5C 58.4023,124.659 59.7356,123.326 61.5,122.5 Z"/></g>
<g><path style="opacity:0.6" fill="#adacac" d="M 33.5,124.5 C 33.0773,126.781 33.744,128.448 35.5,129.5C 33.7749,130.905 31.7749,131.405 29.5,131C 31.5972,129.23 32.9306,127.063 33.5,124.5 Z"/></g>
<g><path style="opacity:0.533" fill="#9b9a9b" d="M 44.5,126.5 C 45.2679,127.263 45.7679,128.263 46,129.5C 46.2784,128.584 46.7784,127.918 47.5,127.5C 47.7778,129.346 47.1112,130.68 45.5,131.5C 44.5481,129.955 44.2148,128.288 44.5,126.5 Z"/></g>
<g><path style="opacity:0.027" fill="#b9b9b9" d="M 103.5,130.5 C 102.947,132.552 101.947,132.885 100.5,131.5C 101.609,131.443 102.609,131.11 103.5,130.5 Z"/></g>
</svg>
